<svg width="52" height="55" viewBox="0 0 52 55" fill="none" xmlns="http://www.w3.org/2000/svg">
<path d="M51.88 38.6719V2.57812C51.88 1.14941 50.6409 0 49.1007 0H11.1171C4.97955 0 0 4.61914 0 10.3125V44.6875C0 50.3809 4.97955 55 11.1171 55H49.1007C50.6409 55 51.88 53.8506 51.88 52.4219V50.7031C51.88 49.8975 51.4747 49.167 50.8493 48.6943C50.363 47.04 50.363 42.3242 50.8493 40.6699C51.4747 40.208 51.88 39.4775 51.88 38.6719ZM14.8229 14.3945C14.8229 14.04 15.1355 13.75 15.5177 13.75H40.068C40.4502 13.75 40.7629 14.04 40.7629 14.3945V16.543C40.7629 16.8975 40.4502 17.1875 40.068 17.1875H15.5177C15.1355 17.1875 14.8229 16.8975 14.8229 16.543V14.3945ZM14.8229 21.2695C14.8229 20.915 15.1355 20.625 15.5177 20.625H40.068C40.4502 20.625 40.7629 20.915 40.7629 21.2695V23.418C40.7629 23.7725 40.4502 24.0625 40.068 24.0625H15.5177C15.1355 24.0625 14.8229 23.7725 14.8229 23.418V21.2695ZM44.1675 48.125H11.1171C9.06742 48.125 7.41143 46.5889 7.41143 44.6875C7.41143 42.7969 9.079 41.25 11.1171 41.25H44.1675C43.9475 43.0869 43.9475 46.2881 44.1675 48.125Z" fill="#F3F4F6"/>
</svg>
