<svg width="315" height="284" viewBox="0 0 315 284" fill="none" xmlns="http://www.w3.org/2000/svg">
<path d="M311 142L157.5 4L4 142L157.5 280L311 142Z" fill="#148FB6" stroke="#148FB6" stroke-width="5"/>
<path d="M58.9545 166.091V151.364L87.0455 107.182H100.409V126.818H92.7727L77.6364 150.818V151.364H119.091V166.091H58.9545ZM92.9091 177V161.591L93.3182 155.182V107.182H111.045V177H92.9091ZM157.452 178.909C151.111 178.886 145.634 177.42 141.02 174.511C136.406 171.602 132.849 167.409 130.349 161.932C127.849 156.455 126.611 149.886 126.634 142.227C126.656 134.545 127.906 128.023 130.384 122.659C132.884 117.295 136.429 113.216 141.02 110.42C145.634 107.625 151.111 106.227 157.452 106.227C163.793 106.227 169.27 107.636 173.884 110.455C178.497 113.25 182.054 117.33 184.554 122.693C187.054 128.057 188.293 134.568 188.27 142.227C188.27 149.932 187.02 156.523 184.52 162C182.02 167.477 178.463 171.67 173.849 174.58C169.259 177.466 163.793 178.909 157.452 178.909ZM157.452 163.5C160.724 163.5 163.406 161.795 165.497 158.386C167.611 154.955 168.656 149.568 168.634 142.227C168.634 137.432 168.156 133.511 167.202 130.466C166.247 127.42 164.929 125.17 163.247 123.716C161.565 122.239 159.634 121.5 157.452 121.5C154.179 121.5 151.509 123.159 149.44 126.477C147.372 129.795 146.315 135.045 146.27 142.227C146.247 147.114 146.713 151.136 147.668 154.295C148.622 157.432 149.94 159.75 151.622 161.25C153.327 162.75 155.27 163.5 157.452 163.5ZM196.486 166.091V151.364L224.577 107.182H237.94V126.818H230.304L215.168 150.818V151.364H256.622V166.091H196.486ZM230.44 177V161.591L230.849 155.182V107.182H248.577V177H230.44Z" fill="white"/>
</svg>
