<svg width="25" height="20" viewBox="0 0 25 20" fill="none" xmlns="http://www.w3.org/2000/svg">
<path d="M9.65186 0.056282C9.45498 0.142973 9.2533 0.388596 9.21969 0.581244C9.20528 0.667934 9.19568 1.84308 9.20528 3.20123C9.21969 5.6045 9.22449 5.66711 9.32053 5.79714C9.55582 6.11501 9.59904 6.12946 10.593 6.14391L11.5006 6.15836V7.69471V9.23588L7.13565 9.24551C2.80912 9.25996 2.76591 9.25996 2.63625 9.3611C2.56423 9.41408 2.45858 9.52004 2.40576 9.59228C2.30972 9.72231 2.30492 9.78974 2.29052 11.7884L2.27611 13.8546L1.36855 13.869C0.379352 13.8835 0.336134 13.8979 0.10084 14.2158C0 14.3458 0 14.3988 0 16.9417C0 19.4847 0 19.5376 0.10084 19.6677C0.153661 19.7399 0.259304 19.8459 0.331333 19.8989C0.460984 20 0.513806 20 3.04922 20C5.58463 20 5.63745 20 5.76711 19.8989C5.83914 19.8459 5.94478 19.7399 5.9976 19.6677C6.09844 19.5376 6.09844 19.4847 6.09844 16.9417C6.09844 14.3988 6.09844 14.3458 5.9976 14.2158C5.7623 13.8979 5.71909 13.8835 4.72509 13.869L3.81753 13.8546V12.3134V10.7771H7.65906H11.5006V12.3134V13.8546L10.593 13.869C9.59904 13.8835 9.55582 13.8979 9.32053 14.2158C9.21969 14.3458 9.21969 14.3988 9.21969 16.9417C9.21969 19.4847 9.21969 19.5376 9.32053 19.6677C9.37335 19.7399 9.47899 19.8459 9.55102 19.8989C9.68067 20 9.73349 20 12.2689 20C14.8043 20 14.8571 20 14.9868 19.8989C15.0588 19.8459 15.1645 19.7399 15.2173 19.6677C15.3181 19.5376 15.3181 19.4847 15.3181 16.9417C15.3181 14.3988 15.3181 14.3458 15.2173 14.2158C14.982 13.8979 14.9388 13.8835 13.9448 13.869L13.0372 13.8546V12.3134V10.7771H16.8788H20.7203V12.3134V13.8546L19.8127 13.869C18.8187 13.8835 18.7755 13.8979 18.5402 14.2158C18.4394 14.3458 18.4394 14.3988 18.4394 16.9417C18.4394 19.4847 18.4394 19.5376 18.5402 19.6677C18.593 19.7399 18.6987 19.8459 18.7707 19.8989C18.9004 20 18.9532 20 21.4886 20C24.024 20 24.0768 20 24.2065 19.8989C24.2785 19.8459 24.3842 19.7399 24.437 19.6677C24.5378 19.5376 24.5378 19.4847 24.5378 16.9417C24.5378 14.3988 24.5378 14.3458 24.437 14.2158C24.2017 13.8979 24.1585 13.8835 23.1693 13.869L22.2617 13.8546L22.2473 11.7884C22.2329 9.78974 22.2281 9.72231 22.1321 9.59228C22.0792 9.52004 21.9736 9.41408 21.9016 9.3611C21.7719 9.25996 21.7287 9.25996 17.4022 9.24551L13.0372 9.23588V7.69471V6.15836L13.9448 6.14391C14.9388 6.12946 14.982 6.11501 15.2173 5.79714C15.3181 5.66711 15.3181 5.61413 15.3181 3.0712C15.3181 0.528265 15.3181 0.475286 15.2173 0.345251C15.1645 0.273008 15.0588 0.167053 14.9868 0.114075C14.8571 0.0129356 14.7947 0.0129356 12.3265 0.00330353C10.2953 -0.00632858 9.76711 0.00330353 9.65186 0.056282Z" fill="black"/>
</svg>
