<svg width="54" height="62" viewBox="0 0 54 62" fill="none" xmlns="http://www.w3.org/2000/svg">
<path fill-rule="evenodd" clip-rule="evenodd" d="M0.75 6.58333C0.75 5.03624 1.36458 3.55251 2.45854 2.45854C3.55251 1.36458 5.03624 0.75 6.58333 0.75H47.4167C48.9638 0.75 50.4475 1.36458 51.5415 2.45854C52.6354 3.55251 53.25 5.03624 53.25 6.58333V47.4167C53.25 48.9638 52.6354 50.4475 51.5415 51.5415C50.4475 52.6354 48.9638 53.25 47.4167 53.25H6.58333C5.03624 53.25 3.55251 52.6354 2.45854 51.5415C1.36458 50.4475 0.75 48.9638 0.75 47.4167V6.58333ZM32.6554 14.3271C31.6258 11.7517 27.9363 11.8975 27.1079 14.5429L21.9979 30.8938L20.8663 28.6275C20.6215 28.1385 20.2456 27.7273 19.7804 27.4399C19.3153 27.1524 18.7793 27.0001 18.2325 27H12.4167C11.6431 27 10.9013 27.3073 10.3543 27.8543C9.80729 28.4013 9.5 29.1431 9.5 29.9167C9.5 30.6902 9.80729 31.4321 10.3543 31.9791C10.9013 32.526 11.6431 32.8333 12.4167 32.8333H16.4475L19.9825 39.9062C21.1696 42.2775 24.6404 41.9975 25.4308 39.4688L30.255 24.0308L33.0346 30.9813C33.4808 32.1012 34.5658 32.8333 35.7704 32.8333H41.5833C42.3569 32.8333 43.0988 32.526 43.6457 31.9791C44.1927 31.4321 44.5 30.6902 44.5 29.9167C44.5 29.1431 44.1927 28.4013 43.6457 27.8543C43.0988 27.3073 42.3569 27 41.5833 27H37.7246L32.6554 14.3271Z" fill="#4ECB71"/>
</svg>
