<svg width="70" height="70" viewBox="0 0 70 70" fill="none" xmlns="http://www.w3.org/2000/svg">
<path d="M46.6668 61.2493L45.7918 56.8743C45.2085 56.6313 44.6621 56.3766 44.1527 56.1102C43.6432 55.8438 43.1202 55.5152 42.5835 55.1243L38.3543 56.4368L35.4377 51.4785L38.7918 48.5618C38.6946 47.8813 38.646 47.2493 38.646 46.666C38.646 46.0827 38.6946 45.4507 38.7918 44.7702L35.4377 41.8535L38.3543 36.8952L42.5835 38.2077C43.1182 37.8188 43.6413 37.4912 44.1527 37.2248C44.6641 36.9584 45.2104 36.7027 45.7918 36.4577L46.6668 32.0827H52.5002L53.3752 36.4577C53.9585 36.7007 54.5059 36.9681 55.0173 37.2598C55.5286 37.5514 56.0507 37.916 56.5835 38.3535L60.8127 36.8952L63.7293 41.9993L60.3752 44.916C60.4724 45.4993 60.521 46.107 60.521 46.7389C60.521 47.3709 60.4724 47.9785 60.3752 48.5618L63.7293 51.4785L60.8127 56.4368L56.5835 55.1243C56.0488 55.5132 55.5267 55.8419 55.0173 56.1102C54.5078 56.3785 53.9604 56.6332 53.3752 56.8743L52.5002 61.2493H46.6668ZM5.8335 58.3327V50.166C5.8335 48.5618 6.24669 47.0549 7.07308 45.6452C7.89947 44.2355 9.04183 43.166 10.5002 42.4368C12.9793 41.173 15.7745 40.1035 18.8856 39.2285C21.9967 38.3535 25.4238 37.916 29.1668 37.916H30.1877C30.4793 37.916 30.771 37.9646 31.0627 38.0618C29.6529 41.5618 29.0696 45.0375 29.3127 48.4889C29.5557 51.9403 30.7224 55.2216 32.8127 58.3327H5.8335ZM49.5835 52.4993C51.1877 52.4993 52.5614 51.9287 53.7047 50.7873C54.8481 49.6459 55.4188 48.2721 55.4168 46.666C55.4149 45.0599 54.8442 43.6871 53.7047 42.5477C52.5653 41.4082 51.1916 40.8366 49.5835 40.8327C47.9754 40.8288 46.6027 41.4005 45.4652 42.5477C44.3277 43.6949 43.756 45.0677 43.7502 46.666C43.7443 48.2643 44.316 49.6381 45.4652 50.7873C46.6143 51.9364 47.9871 52.5071 49.5835 52.4993ZM29.1668 34.9993C25.9585 34.9993 23.212 33.857 20.9272 31.5723C18.6425 29.2875 17.5002 26.541 17.5002 23.3327C17.5002 20.1243 18.6425 17.3778 20.9272 15.0931C23.212 12.8084 25.9585 11.666 29.1668 11.666C32.3752 11.666 35.1217 12.8084 37.4064 15.0931C39.6911 17.3778 40.8335 20.1243 40.8335 23.3327C40.8335 26.541 39.6911 29.2875 37.4064 31.5723C35.1217 33.857 32.3752 34.9993 29.1668 34.9993Z" fill="#4ECB71"/>
</svg>
